<svg xmlns="http://www.w3.org/2000/svg" viewBox="-24 0 96 96"><path d="M2.65.34c1.74.01 5.22.03 7.41.14 2.2.1 3.1.3 4.05.72a11.03 11.03 0 016.1 6.55c.22.66.28 1.16.34 6.01.05 4.85.1 14.01.15 23.2l8.98 8.82-9.07 8.87c0 10.15.02 20.29-.05 25.75-.06 5.46-.2 6.25-.45 7.03a9.55 9.55 0 01-2.93 4.48c-.74.65-1.62 1.23-2.32 1.63-.7.4-1.21.61-1.83.78-.62.17-1.33.28-3.37.33-2.04.06-5.4.06-8.77.06.43-.75.86-1.49 1.25-2.08a10.07 10.07 0 012.33-2.52c.37-.29.68-.48 1.24-.58.56-.1 1.4-.13 2.15-.2a8.82 8.82 0 003.77-1.1c.47-.25.78-.5 1.07-.79.28-.3.52-.65.66-1.02.15-.37.19-.75.2-6.05.02-5.3.01-15.53.07-20.94.06-5.4.2-6 .4-6.55a7.3 7.3 0 012.51-3.19c1.13-.93 3.07-2.41 5.02-3.9a212.8 212.8 0 01-4.63-3.58 10.23 10.23 0 01-2.82-3.24 5.12 5.12 0 01-.48-1.46c-.08-.44-.1-.83-.1-5.2s.02-12.75-.01-17.18c-.04-4.43-.11-4.93-.25-5.42-.14-.5-.34-1-.63-1.45a4.2 4.2 0 00-1.1-1.17 6.05 6.05 0 00-3.01-.97c-.78-.06-1.96-.1-2.77-.23a3.41 3.41 0 01-1.64-.6 4.83 4.83 0 01-1.24-1.48A84.61 84.61 0 01.91.33l1.74.01zm38.53 94.33h4.13V.05l-7.37 17.6 3.24 4.03z"/></svg>
